<?xml version="1.0" encoding="UTF-8" standalone="no"?>
<!-- Created with Inkscape (http://www.inkscape.org/) -->

<svg
   xmlns:dc="http://purl.org/dc/elements/1.1/"
   xmlns:cc="http://creativecommons.org/ns#"
   xmlns:rdf="http://www.w3.org/1999/02/22-rdf-syntax-ns#"
   xmlns:svg="http://www.w3.org/2000/svg"
   xmlns="http://www.w3.org/2000/svg"
   xmlns:sodipodi="http://sodipodi.sourceforge.net/DTD/sodipodi-0.dtd"
   xmlns:inkscape="http://www.inkscape.org/namespaces/inkscape"
   width="128"
   height="128"
   viewBox="0 0 128 128"
   id="svg2"
   version="1.1"
   inkscape:version="0.91 r13725"
   sodipodi:docname="logo.svg"
   inkscape:export-filename="/home/dani/projects/google-bouncing-logo/logo/512.png"
   inkscape:export-xdpi="360"
   inkscape:export-ydpi="360">
  <defs
     id="defs4">
    <clipPath
       clipPathUnits="userSpaceOnUse"
       id="clipPath4273">
      <path
         style="fill:#000000;fill-rule:evenodd;stroke:none;stroke-width:1.12507117px;stroke-linecap:butt;stroke-linejoin:miter;stroke-opacity:1"
         d="m 114,988.36218 a 50,50 0 0 1 -50,50.00002 50,50 0 0 1 -50,-50.00002 50,50 0 0 1 50,-50 50,50 0 0 1 50,50 z"
         id="path4275"
         clip-path="none"
         inkscape:connector-curvature="0" />
    </clipPath>
    <clipPath
       clipPathUnits="userSpaceOnUse"
       id="clipPath4277">
      <path
         inkscape:connector-curvature="0"
         style="fill:#000000;fill-rule:evenodd;stroke:none;stroke-width:1.12507117px;stroke-linecap:butt;stroke-linejoin:miter;stroke-opacity:1"
         d="m 114,988.36216 a 50,50 0 0 1 -50,50.00004 50,50 0 0 1 -50.000001,-50.00004 50,50 0 0 1 50.000001,-50 50,50 0 0 1 50,50 z"
         id="path4279"
         clip-path="none" />
    </clipPath>
    <clipPath
       clipPathUnits="userSpaceOnUse"
       id="clipPath4281">
      <path
         inkscape:connector-curvature="0"
         style="fill:#000000;fill-rule:evenodd;stroke:none;stroke-width:1.12507117px;stroke-linecap:butt;stroke-linejoin:miter;stroke-opacity:1"
         d="m 114,988.36214 a 50,50 0 0 1 -50.000001,50.00006 50,50 0 0 1 -49.999998,-50.00006 50,50 0 0 1 49.999998,-50 50,50 0 0 1 50.000001,50 z"
         id="path4283"
         clip-path="none" />
    </clipPath>
    <clipPath
       clipPathUnits="userSpaceOnUse"
       id="clipPath4285">
      <path
         inkscape:connector-curvature="0"
         style="fill:#000000;fill-rule:evenodd;stroke:none;stroke-width:1.12507117px;stroke-linecap:butt;stroke-linejoin:miter;stroke-opacity:1"
         d="M 114,988.3621 A 50,50 0 0 1 63.999999,1038.3622 50,50 0 0 1 14.000001,988.3621 50,50 0 0 1 63.999999,938.36213 50,50 0 0 1 114,988.3621 Z"
         id="path4287"
         clip-path="none" />
    </clipPath>
  </defs>
  <sodipodi:namedview
     id="base"
     pagecolor="#ffffff"
     bordercolor="#666666"
     borderopacity="1.0"
     inkscape:pageopacity="0.0"
     inkscape:pageshadow="2"
     inkscape:zoom="3.959798"
     inkscape:cx="-1.531646"
     inkscape:cy="70.415868"
     inkscape:document-units="px"
     inkscape:current-layer="layer1"
     showgrid="false"
     units="px"
     inkscape:window-width="1920"
     inkscape:window-height="1056"
     inkscape:window-x="0"
     inkscape:window-y="24"
     inkscape:window-maximized="1" />
  <metadata
     id="metadata7">
    <rdf:RDF>
      <cc:Work
         rdf:about="">
        <dc:format>image/svg+xml</dc:format>
        <dc:type
           rdf:resource="http://purl.org/dc/dcmitype/StillImage" />
        <dc:title></dc:title>
      </cc:Work>
    </rdf:RDF>
  </metadata>
  <g
     inkscape:label="Capa 1"
     inkscape:groupmode="layer"
     id="layer1"
     transform="translate(0,-924.36216)">
    <g
       id="g4289"
       transform="translate(0,-2.1308594e-5)">
      <rect
         clip-path="url(#clipPath4277)"
         y="938.36218"
         x="14"
         height="50"
         width="50"
         id="rect3340"
         style="fill:#4285f4;fill-opacity:1;fill-rule:evenodd;stroke:none;stroke-width:1px;stroke-linecap:butt;stroke-linejoin:miter;stroke-opacity:1" />
      <path
         clip-path="url(#clipPath4273)"
         id="rect3340-2"
         d="m 64,938.36218 50,0 0,50 -50,0 z"
         style="fill:#ea4335;fill-opacity:1;fill-rule:evenodd;stroke:none;stroke-width:1px;stroke-linecap:butt;stroke-linejoin:miter;stroke-opacity:1"
         inkscape:connector-curvature="0" />
      <rect
         clip-path="url(#clipPath4285)"
         y="988.36218"
         x="14.000001"
         height="50"
         width="50"
         id="rect3340-8"
         style="fill:#fbbc05;fill-opacity:1;fill-rule:evenodd;stroke:none;stroke-width:1px;stroke-linecap:butt;stroke-linejoin:miter;stroke-opacity:1" />
      <rect
         clip-path="url(#clipPath4281)"
         y="988.36218"
         x="64"
         height="50"
         width="50"
         id="rect3340-3"
         style="fill:#34a853;fill-opacity:1;fill-rule:evenodd;stroke:none;stroke-width:1px;stroke-linecap:butt;stroke-linejoin:miter;stroke-opacity:1" />
    </g>
  </g>
</svg>
